<?xml version="1.0" encoding="UTF-8" standalone="no"?>
<!-- Created with Inkscape (http://www.inkscape.org/) -->

<svg
   xmlns:dc="http://purl.org/dc/elements/1.1/"
   xmlns:cc="http://creativecommons.org/ns#"
   xmlns:rdf="http://www.w3.org/1999/02/22-rdf-syntax-ns#"
   xmlns:svg="http://www.w3.org/2000/svg"
   xmlns="http://www.w3.org/2000/svg"
   xmlns:sodipodi="http://sodipodi.sourceforge.net/DTD/sodipodi-0.dtd"
   xmlns:inkscape="http://www.inkscape.org/namespaces/inkscape"
   width="24in"
   height="6in"
   viewBox="0 0 609.6 152.40001"
   version="1.1"
   id="svg8"
   inkscape:version="0.92.2 (5c3e80d, 2017-08-06)"
   sodipodi:docname="model_schematic.svg">
  <defs
     id="defs2">
    <clipPath
       id="clipPath45"
       clipPathUnits="userSpaceOnUse">
      <path
         inkscape:connector-curvature="0"
         id="path43"
         d="M 3,260 H 42.52 V 528 H 3 Z" />
    </clipPath>
    <clipPath
       id="clipPath85"
       clipPathUnits="userSpaceOnUse">
      <path
         inkscape:connector-curvature="0"
         id="path83"
         d="M 0,0 H 594 V 783 H 0 Z" />
    </clipPath>
    <clipPath
       id="clipPath93"
       clipPathUnits="userSpaceOnUse">
      <path
         inkscape:connector-curvature="0"
         id="path91"
         d="M 0,863.504 H 1782 V -80.504 H 0 Z" />
    </clipPath>
    <clipPath
       id="clipPath101"
       clipPathUnits="userSpaceOnUse">
      <path
         inkscape:connector-curvature="0"
         id="path99"
         d="M 0,863.504 H 1782 V -80.504 H 0 Z" />
    </clipPath>
    <clipPath
       id="clipPath471"
       clipPathUnits="userSpaceOnUse">
      <path
         inkscape:connector-curvature="0"
         id="path469"
         d="m 45.001,533.038 h 503.998 v 189.85 H 45.001 Z" />
    </clipPath>
    <clipPath
       id="clipPath847"
       clipPathUnits="userSpaceOnUse">
      <path
         inkscape:connector-curvature="0"
         id="path845"
         d="m 45.001,533.038 h 503.998 v 189.85 H 45.001 Z" />
    </clipPath>
    <clipPath
       id="clipPath875"
       clipPathUnits="userSpaceOnUse">
      <path
         inkscape:connector-curvature="0"
         id="path873"
         d="m 45.001,533.038 h 503.998 v 189.85 H 45.001 Z" />
    </clipPath>
    <clipPath
       id="clipPath997"
       clipPathUnits="userSpaceOnUse">
      <path
         inkscape:connector-curvature="0"
         id="path995"
         d="m 45.001,533.038 h 503.998 v 189.85 H 45.001 Z" />
    </clipPath>
    <clipPath
       id="clipPath1295"
       clipPathUnits="userSpaceOnUse">
      <path
         inkscape:connector-curvature="0"
         id="path1293"
         d="M 45.02,125.66 H 548.979 V 264.884 H 45.02 Z" />
    </clipPath>
    <clipPath
       id="clipPath1419"
       clipPathUnits="userSpaceOnUse">
      <path
         inkscape:connector-curvature="0"
         id="path1417"
         d="M 45.02,125.66 H 548.979 V 264.884 H 45.02 Z" />
    </clipPath>
    <clipPath
       id="clipPath1617"
       clipPathUnits="userSpaceOnUse">
      <path
         inkscape:connector-curvature="0"
         id="path1615"
         d="M 45.02,125.66 H 548.979 V 264.884 H 45.02 Z" />
    </clipPath>
  </defs>
  <sodipodi:namedview
     id="base"
     pagecolor="#ffffff"
     bordercolor="#666666"
     borderopacity="1.0"
     inkscape:pageopacity="0.0"
     inkscape:pageshadow="2"
     inkscape:zoom="0.49497475"
     inkscape:cx="1207.94"
     inkscape:cy="607.70137"
     inkscape:document-units="mm"
     inkscape:current-layer="layer1"
     showgrid="false"
     inkscape:window-width="1920"
     inkscape:window-height="1101"
     inkscape:window-x="1920"
     inkscape:window-y="28"
     inkscape:window-maximized="1"
     units="in"
     inkscape:pagecheckerboard="false"
     borderlayer="true" />
  <metadata
     id="metadata5">
    <rdf:RDF>
      <cc:Work
         rdf:about="">
        <dc:format>image/svg+xml</dc:format>
        <dc:type
           rdf:resource="http://purl.org/dc/dcmitype/StillImage" />
        <dc:title></dc:title>
      </cc:Work>
    </rdf:RDF>
  </metadata>
  <g
     inkscape:label="Layer 1"
     inkscape:groupmode="layer"
     id="layer1"
     transform="translate(0,-144.59995)">
    <path
       d="M 58.436634,79.621176 H 45.59764 v -9.462911 l 12.838994,7.05e-4 z"
       style="fill:#ffffff;fill-opacity:1;fill-rule:nonzero;stroke:none;stroke-width:0.35277778"
       id="path617"
       inkscape:connector-curvature="0" />
    <g
       id="g11374"
       transform="matrix(7.6980755,0,0,7.6980755,-84.983175,-208.61599)">
      <path
         inkscape:connector-curvature="0"
         id="path481"
         style="fill:#bec1c9;fill-opacity:1;fill-rule:nonzero;stroke:none;stroke-width:0.35277778"
         d="M 30.97606,65.72032 H 72.043626 V 46.485465 H 30.97606 Z" />
      <path
         inkscape:connector-curvature="0"
         id="path483"
         style="fill:none;stroke:#000000;stroke-width:0.18485555;stroke-linecap:round;stroke-linejoin:miter;stroke-miterlimit:14.30000019;stroke-dasharray:none;stroke-opacity:1"
         d="m 59.285418,53.327943 6.010627,0.0039 6.010628,0.0035 v 8.854722" />
      <path
         inkscape:connector-curvature="0"
         id="path485"
         style="fill:#000000;fill-opacity:1;fill-rule:evenodd;stroke:none;stroke-width:0.35277778"
         d="m 31.751113,54.753871 1.4986,0.762 -1.4986,0.811036 z" />
      <path
         inkscape:connector-curvature="0"
         id="path487"
         style="fill:none;stroke:#000000;stroke-width:0.18485555;stroke-linecap:butt;stroke-linejoin:miter;stroke-miterlimit:14.30000019;stroke-dasharray:none;stroke-opacity:1"
         d="m 27.470154,55.542329 4.8514,-0.0011" />
      <path
         inkscape:connector-curvature="0"
         id="path489"
         style="fill:none;stroke:#000000;stroke-width:0.2525889;stroke-linecap:butt;stroke-linejoin:miter;stroke-miterlimit:14.30000019;stroke-dasharray:none;stroke-opacity:1"
         d="m 40.51129,53.325474 4.246386,-7.06e-4" />
      <path
         inkscape:connector-curvature="0"
         id="path491"
         style="fill:#000000;fill-opacity:1;fill-rule:evenodd;stroke:none;stroke-width:0.35277778"
         d="m 43.50849,52.537015 1.498953,0.761647 -1.498953,0.811389 z" />
      <path
         inkscape:connector-curvature="0"
         id="path493"
         style="fill:none;stroke:#000000;stroke-width:0.18485555;stroke-linecap:butt;stroke-linejoin:miter;stroke-miterlimit:14.30000019;stroke-dasharray:none;stroke-opacity:1"
         d="m 55.909334,53.327943 h 20.063883 m -27.622499,0 h 5.976761" />
      <path
         inkscape:connector-curvature="0"
         id="path495"
         style="fill:#000000;fill-opacity:1;fill-rule:evenodd;stroke:none;stroke-width:0.35277778"
         d="m 75.45922,52.537015 1.498953,0.761647 -1.498953,0.811389 z" />
      <path
         inkscape:connector-curvature="0"
         id="path497"
         style="fill:#000000;fill-opacity:1;fill-rule:evenodd;stroke:none;stroke-width:0.35277778"
         d="m 61.738281,52.537015 1.497542,0.761647 -1.497542,0.811389 z" />
      <path
         inkscape:connector-curvature="0"
         id="path499"
         style="fill:none;stroke:#000000;stroke-width:0.11218332;stroke-linecap:butt;stroke-linejoin:miter;stroke-miterlimit:11.5;stroke-dasharray:none;stroke-opacity:1"
         d="m 61.738281,52.537015 1.497542,0.761647 -1.497542,0.811389 z" />
      <path
         inkscape:connector-curvature="0"
         id="path501"
         style="fill:#000000;fill-opacity:1;fill-rule:evenodd;stroke:none;stroke-width:0.35277778"
         d="m 46.944898,56.572087 0.490714,-1.608314 1.058686,1.335264 z" />
      <path
         inkscape:connector-curvature="0"
         id="path503"
         style="fill:none;stroke:#000000;stroke-width:0.11218332;stroke-linecap:butt;stroke-linejoin:miter;stroke-miterlimit:11.5;stroke-dasharray:none;stroke-opacity:1"
         d="m 46.944898,56.572087 0.490714,-1.608314 1.058686,1.335264 z" />
      <path
         inkscape:connector-curvature="0"
         id="path505"
         style="fill:none;stroke:#000000;stroke-width:0.18485555;stroke-linecap:round;stroke-linejoin:miter;stroke-miterlimit:14.30000019;stroke-dasharray:none;stroke-opacity:1"
         d="m 54.70354,62.395743 c -5.667728,-0.0374 -6.727119,-2.664178 -7.234767,-7.319433 m 23.838253,7.179027 -11.907661,0.0081" />
      <path
         inkscape:connector-curvature="0"
         id="path507"
         style="fill:#ffffff;fill-opacity:1;fill-rule:nonzero;stroke:none;stroke-width:0.35277778"
         d="m 53.600404,65.276526 h 9.098491 v -5.491339 h -9.098491 z" />
      <path
         inkscape:connector-curvature="0"
         id="path509"
         style="fill:none;stroke:#000000;stroke-width:0.12417778;stroke-linecap:butt;stroke-linejoin:miter;stroke-miterlimit:11.5;stroke-dasharray:none;stroke-opacity:1"
         d="m 53.600404,65.276526 h 9.098491 v -5.491692 h -9.098491 z" />
      <path
         inkscape:connector-curvature="0"
         id="path511"
         style="fill:none;stroke:#c93333;stroke-width:0.36935833;stroke-linecap:butt;stroke-linejoin:miter;stroke-miterlimit:14.30000019;stroke-dasharray:none;stroke-opacity:1"
         d="m 54.707068,61.260151 v 3.137958" />
      <path
         inkscape:connector-curvature="0"
         id="path513"
         style="fill:none;stroke:#000000;stroke-width:0.12417778;stroke-linecap:butt;stroke-linejoin:miter;stroke-miterlimit:11.5;stroke-dasharray:none;stroke-opacity:1"
         d="m 53.600757,61.274262 h 9.143999" />
      <path
         inkscape:connector-curvature="0"
         id="path515"
         style="fill:none;stroke:#c93333;stroke-width:0.36935833;stroke-linecap:butt;stroke-linejoin:miter;stroke-miterlimit:14.30000019;stroke-dasharray:none;stroke-opacity:1"
         d="m 54.572307,64.358245 c 0.153105,-0.03493 0.225072,-0.141111 0.350661,-0.290688 0.348544,-0.415925 0.718961,-1.530703 0.898525,-2.026356 0.141464,-0.389114 0.361244,-1.428044 1.140177,-1.791405 0.360539,-0.168628 0.848078,-0.16757 1.548695,0.168627 0.684742,0.328789 1.703211,0.66922 2.557639,0.753886 0.677333,0.06809 0.877358,0.0702 1.569508,0.05856" />
      <path
         inkscape:connector-curvature="0"
         id="path517"
         style="fill:#ffffff;fill-opacity:1;fill-rule:nonzero;stroke:none;stroke-width:0.35277778"
         d="m 63.268279,55.86371 h 5.717822 v -5.698067 h -5.717822 z" />
      <path
         inkscape:connector-curvature="0"
         id="path519"
         style="fill:none;stroke:#000000;stroke-width:0.17638889;stroke-linecap:butt;stroke-linejoin:miter;stroke-miterlimit:11.5;stroke-dasharray:none;stroke-opacity:1"
         d="m 63.268279,55.86371 h 5.717822 v -5.69842 h -5.717822 z" />
      <path
         inkscape:connector-curvature="0"
         id="path521"
         style="fill:#c93333;fill-opacity:1;fill-rule:nonzero;stroke:none;stroke-width:0.35277778"
         d="M 64.111065,54.95954 H 66.80417 V 52.080168 H 64.111065 Z" />
      <path
         inkscape:connector-curvature="0"
         id="path523"
         style="fill:none;stroke:#ffffff;stroke-width:0.11041944;stroke-linecap:butt;stroke-linejoin:miter;stroke-miterlimit:14.30000019;stroke-dasharray:none;stroke-opacity:1"
         d="m 64.111065,54.958482 h 2.693105 v -2.87902 h -2.693105 z" />
      <path
         inkscape:connector-curvature="0"
         id="path525"
         style="fill:#c93333;fill-opacity:1;fill-rule:evenodd;stroke:none;stroke-width:0.35277778"
         d="m 65.635065,53.518796 c 0,0.09878 -0.07902,0.178505 -0.177095,0.178505 -0.09843,0 -0.179211,-0.07973 -0.179211,-0.178505 0,-0.09807 0.08079,-0.1778 0.179211,-0.1778 0.09807,0 0.177095,0.07973 0.177095,0.1778" />
      <path
         inkscape:connector-curvature="0"
         id="path527"
         style="fill:#ffffff;fill-opacity:1;fill-rule:nonzero;stroke:none;stroke-width:0.35277778"
         d="m 65.635065,53.518796 c 0,0.09878 -0.07902,0.178505 -0.177095,0.178505 -0.09843,0 -0.179211,-0.07973 -0.179211,-0.178505 0,-0.09807 0.08079,-0.1778 0.179211,-0.1778 0.09807,0 0.177095,0.07973 0.177095,0.1778" />
      <path
         inkscape:connector-curvature="0"
         id="path529"
         style="fill:none;stroke:#ffffff;stroke-width:0.11041944;stroke-linecap:butt;stroke-linejoin:miter;stroke-miterlimit:14.30000019;stroke-dasharray:none;stroke-opacity:1"
         d="m 65.635065,53.518796 c 0,0.09878 -0.07902,0.178505 -0.177095,0.178505 -0.09843,0 -0.179211,-0.07973 -0.179211,-0.178505 0,-0.09807 0.08079,-0.1778 0.179211,-0.1778 0.09807,0 0.177095,0.07973 0.177095,0.1778 z" />
      <path
         inkscape:connector-curvature="0"
         id="path531"
         style="fill:#c93333;fill-opacity:1;fill-rule:evenodd;stroke:none;stroke-width:0.35277778"
         d="m 65.394118,50.963274 h 2.693811 l -1.294342,1.109486 h -2.694164" />
      <path
         inkscape:connector-curvature="0"
         id="path533"
         style="fill:none;stroke:#ffffff;stroke-width:0.11041944;stroke-linecap:butt;stroke-linejoin:round;stroke-miterlimit:14.30000019;stroke-dasharray:none;stroke-opacity:1"
         d="m 65.394118,50.963274 h 2.693811 l -1.294342,1.109486 h -2.694164 z" />
      <path
         inkscape:connector-curvature="0"
         id="path535"
         style="fill:#c93333;fill-opacity:1;fill-rule:evenodd;stroke:none;stroke-width:0.35277778"
         d="m 66.803465,52.060765 1.3462,-1.148997 v 2.879372 l -1.3462,1.148292" />
      <path
         inkscape:connector-curvature="0"
         id="path537"
         style="fill:none;stroke:#ffffff;stroke-width:0.11041944;stroke-linecap:butt;stroke-linejoin:round;stroke-miterlimit:14.30000019;stroke-dasharray:none;stroke-opacity:1"
         d="m 66.803465,52.060765 1.3462,-1.148997 v 2.879372 l -1.3462,1.148292 z" />
      <path
         inkscape:connector-curvature="0"
         id="path539"
         style="fill:#c93333;fill-opacity:1;fill-rule:evenodd;stroke:none;stroke-width:0.35277778"
         d="m 67.228562,54.020798 c 0,0.09772 -0.04586,0.217312 -0.102306,0.266348 -0.05715,0.04833 -0.103364,0.0088 -0.103364,-0.09031 0,-0.09878 0.04621,-0.217312 0.103364,-0.266348 0.05644,-0.04868 0.102306,-0.0088 0.102306,0.09031" />
      <path
         inkscape:connector-curvature="0"
         id="path541"
         style="fill:#ffffff;fill-opacity:1;fill-rule:nonzero;stroke:none;stroke-width:0.35277778"
         d="m 67.228562,54.020798 c 0,0.09772 -0.04586,0.217312 -0.102306,0.266348 -0.05715,0.04833 -0.103364,0.0088 -0.103364,-0.09031 0,-0.09878 0.04621,-0.217312 0.103364,-0.266348 0.05644,-0.04868 0.102306,-0.0088 0.102306,0.09031" />
      <path
         inkscape:connector-curvature="0"
         id="path543"
         style="fill:none;stroke:#ffffff;stroke-width:0.11041944;stroke-linecap:butt;stroke-linejoin:miter;stroke-miterlimit:14.30000019;stroke-dasharray:none;stroke-opacity:1"
         d="m 67.228562,54.020798 c 0,0.09772 -0.04586,0.217312 -0.102306,0.266348 -0.05715,0.04833 -0.103364,0.0088 -0.103364,-0.09031 0,-0.09878 0.04621,-0.217312 0.103364,-0.266348 0.05644,-0.04868 0.102306,-0.0088 0.102306,0.09031 z" />
      <path
         inkscape:connector-curvature="0"
         id="path545"
         style="fill:#c93333;fill-opacity:1;fill-rule:evenodd;stroke:none;stroke-width:0.35277778"
         d="m 67.543945,52.849929 c 0,0.09913 -0.04515,0.217664 -0.102305,0.2667 -0.05715,0.04904 -0.102659,0.0081 -0.102659,-0.09031 0,-0.09843 0.04551,-0.217664 0.102659,-0.266347 0.05715,-0.04868 0.102305,-0.0085 0.102305,0.08996" />
      <path
         inkscape:connector-curvature="0"
         id="path547"
         style="fill:#ffffff;fill-opacity:1;fill-rule:nonzero;stroke:none;stroke-width:0.35277778"
         d="m 67.543945,52.849929 c 0,0.09913 -0.04515,0.217664 -0.102305,0.2667 -0.05715,0.04904 -0.102659,0.0081 -0.102659,-0.09031 0,-0.09843 0.04551,-0.217664 0.102659,-0.266347 0.05715,-0.04868 0.102305,-0.0085 0.102305,0.08996" />
      <path
         inkscape:connector-curvature="0"
         id="path549"
         style="fill:none;stroke:#ffffff;stroke-width:0.11041944;stroke-linecap:butt;stroke-linejoin:miter;stroke-miterlimit:14.30000019;stroke-dasharray:none;stroke-opacity:1"
         d="m 67.543945,52.849929 c 0,0.09913 -0.04515,0.217664 -0.102305,0.2667 -0.05715,0.04904 -0.102659,0.0081 -0.102659,-0.09031 0,-0.09843 0.04551,-0.217664 0.102659,-0.266347 0.05715,-0.04868 0.102305,-0.0085 0.102305,0.08996 z" />
      <path
         inkscape:connector-curvature="0"
         id="path551"
         style="fill:#c93333;fill-opacity:1;fill-rule:evenodd;stroke:none;stroke-width:0.35277778"
         d="m 67.855801,51.777132 c 0,0.09913 -0.04551,0.218369 -0.102306,0.266347 -0.0575,0.04939 -0.102658,0.0088 -0.102658,-0.08996 0,-0.09807 0.04516,-0.217664 0.102658,-0.265642 0.0568,-0.04939 0.102306,-0.0085 0.102306,0.08925" />
      <path
         inkscape:connector-curvature="0"
         id="path553"
         style="fill:#ffffff;fill-opacity:1;fill-rule:nonzero;stroke:none;stroke-width:0.35277778"
         d="m 67.855801,51.777837 c 0,0.09842 -0.04551,0.217664 -0.102306,0.265642 -0.0575,0.04939 -0.102658,0.0088 -0.102658,-0.08996 0,-0.09807 0.04516,-0.217664 0.102658,-0.265642 0.0568,-0.04939 0.102306,-0.0085 0.102306,0.08996" />
      <path
         inkscape:connector-curvature="0"
         id="path555"
         style="fill:none;stroke:#ffffff;stroke-width:0.11041944;stroke-linecap:butt;stroke-linejoin:miter;stroke-miterlimit:14.30000019;stroke-dasharray:none;stroke-opacity:1"
         d="m 67.855801,51.777837 c 0,0.09842 -0.04551,0.217664 -0.102306,0.265642 -0.0575,0.04939 -0.102658,0.0088 -0.102658,-0.08996 0,-0.09807 0.04516,-0.217664 0.102658,-0.265642 0.0568,-0.04939 0.102306,-0.0085 0.102306,0.08996 z" />
      <path
         inkscape:connector-curvature="0"
         id="path557"
         style="fill:#c93333;fill-opacity:1;fill-rule:evenodd;stroke:none;stroke-width:0.35277778"
         d="m 65.839323,51.262782 c -0.06032,0.04833 -0.182386,0.08819 -0.274108,0.08819 -0.08996,7.06e-4 -0.115006,-0.03775 -0.05503,-0.08608 0.05997,-0.04904 0.183445,-0.08749 0.274814,-0.08855 0.08996,-7.05e-4 0.1143,0.0381 0.05433,0.08643" />
      <path
         inkscape:connector-curvature="0"
         id="path559"
         style="fill:#ffffff;fill-opacity:1;fill-rule:nonzero;stroke:none;stroke-width:0.35277778"
         d="m 65.839323,51.262782 c -0.06032,0.04833 -0.183092,0.08819 -0.274108,0.08819 -0.08996,7.06e-4 -0.115006,-0.03775 -0.05503,-0.08608 0.05997,-0.04904 0.183445,-0.08749 0.273756,-0.08855 0.09102,-7.05e-4 0.115358,0.0381 0.05539,0.08643" />
      <path
         inkscape:connector-curvature="0"
         id="path561"
         style="fill:none;stroke:#ffffff;stroke-width:0.11041944;stroke-linecap:butt;stroke-linejoin:miter;stroke-miterlimit:14.30000019;stroke-dasharray:none;stroke-opacity:1"
         d="m 65.839323,51.262782 c -0.06032,0.04833 -0.183092,0.08819 -0.274108,0.08819 -0.08996,7.06e-4 -0.115006,-0.03775 -0.05503,-0.08608 0.05997,-0.04904 0.183445,-0.08749 0.273756,-0.08855 0.09102,-7.05e-4 0.115358,0.0381 0.05539,0.08643 z" />
      <path
         inkscape:connector-curvature="0"
         id="path563"
         style="fill:#c93333;fill-opacity:1;fill-rule:evenodd;stroke:none;stroke-width:0.35277778"
         d="m 66.821104,51.66636 c -0.05997,0.04904 -0.183445,0.08784 -0.274461,0.08784 -0.08996,7.06e-4 -0.115006,-0.03775 -0.05433,-0.08643 0.05927,-0.04763 0.182739,-0.08714 0.27305,-0.08819 0.09102,0 0.115358,0.03881 0.05574,0.08678" />
      <path
         inkscape:connector-curvature="0"
         id="path565"
         style="fill:#ffffff;fill-opacity:1;fill-rule:nonzero;stroke:none;stroke-width:0.35277778"
         d="m 66.821104,51.66636 c -0.06068,0.04904 -0.183445,0.08784 -0.274461,0.08784 -0.08996,7.06e-4 -0.115006,-0.03775 -0.05433,-0.08643 0.05927,-0.04763 0.182386,-0.08714 0.27305,-0.08819 0.09102,0 0.115358,0.03881 0.05574,0.08678" />
      <path
         inkscape:connector-curvature="0"
         id="path567"
         style="fill:none;stroke:#ffffff;stroke-width:0.11041944;stroke-linecap:butt;stroke-linejoin:miter;stroke-miterlimit:14.30000019;stroke-dasharray:none;stroke-opacity:1"
         d="m 66.821104,51.66636 c -0.06068,0.04904 -0.183445,0.08784 -0.274461,0.08784 -0.08996,7.06e-4 -0.115006,-0.03775 -0.05433,-0.08643 0.05927,-0.04763 0.182386,-0.08714 0.27305,-0.08819 0.09102,0 0.115358,0.03881 0.05574,0.08678 z" />
      <path
         inkscape:connector-curvature="0"
         id="path569"
         style="fill:#ffffff;fill-opacity:1;fill-rule:evenodd;stroke:none;stroke-width:0.35277778"
         d="m 48.368357,53.369924 c 0,0.915458 -0.742597,1.658055 -1.659114,1.658055 -0.915106,0 -1.658056,-0.742597 -1.658056,-1.658055 0,-0.915812 0.74295,-1.658056 1.658056,-1.658056 0.916517,0 1.659114,0.742244 1.659114,1.658056" />
      <path
         inkscape:connector-curvature="0"
         id="path571"
         style="fill:none;stroke:#000000;stroke-width:0.111125;stroke-linecap:butt;stroke-linejoin:miter;stroke-miterlimit:11.5;stroke-dasharray:none;stroke-opacity:1"
         d="m 48.368357,53.369924 c 0,0.915458 -0.742597,1.658055 -1.659114,1.658055 -0.915106,0 -1.658056,-0.742597 -1.658056,-1.658055 0,-0.915812 0.74295,-1.658056 1.658056,-1.658056 0.916517,0 1.659114,0.742244 1.659114,1.658056 z" />
      <path
         inkscape:connector-curvature="0"
         id="path573"
         style="fill:#000000;fill-opacity:1;fill-rule:nonzero;stroke:none;stroke-width:0.35277778"
         d="m 46.679962,54.274446 v -0.722489 h -0.718255 v -0.302331 h 0.718255 v -0.718608 h 0.305506 v 0.718608 h 0.718608 v 0.302331 h -0.718608 v 0.722489 z" />
      <path
         inkscape:connector-curvature="0"
         id="path575"
         style="fill:#ffffff;fill-opacity:1;fill-rule:nonzero;stroke:none;stroke-width:0.35277778"
         d="m 50.365079,55.88276 h 7.640814 v -5.73652 h -7.640814 z" />
      <path
         inkscape:connector-curvature="0"
         id="path577"
         style="fill:none;stroke:#000000;stroke-width:0.18485555;stroke-linecap:butt;stroke-linejoin:miter;stroke-miterlimit:14.30000019;stroke-dasharray:none;stroke-opacity:1"
         d="m 50.365079,55.88276 h 7.640814 v -5.73652 h -7.640814 z" />
      <path
         inkscape:connector-curvature="0"
         id="path579"
         style="fill:none;stroke:#000000;stroke-width:0.09242778;stroke-linecap:butt;stroke-linejoin:miter;stroke-miterlimit:11.5;stroke-dasharray:none;stroke-opacity:1"
         d="m 54.185309,51.305468 -7.05e-4,3.504494 m 2.827161,-1.075619 h -5.654322" />
      <path
         inkscape:connector-curvature="0"
         id="path581"
         style="fill:none;stroke:#c93333;stroke-width:0.36935833;stroke-linecap:butt;stroke-linejoin:miter;stroke-miterlimit:14.30000019;stroke-dasharray:none;stroke-opacity:1"
         d="m 51.318285,53.602051 c 0,0 1.646766,0.08608 2.883252,-0.121355 1.308453,-0.219075 2.373489,-1.46297 2.729442,-2.32657" />
      <path
         inkscape:connector-curvature="0"
         id="path583"
         style="fill:#ffffff;fill-opacity:1;fill-rule:nonzero;stroke:none;stroke-width:0.35277778"
         d="m 33.301571,59.016484 h 9.041341 v -8.989483 h -9.041341 z" />
      <path
         inkscape:connector-curvature="0"
         id="path585"
         style="fill:none;stroke:#000000;stroke-width:0.13264443;stroke-linecap:butt;stroke-linejoin:miter;stroke-miterlimit:14.30000019;stroke-dasharray:none;stroke-opacity:1"
         d="m 33.233838,59.016484 h 9.041341 v -8.989483 h -9.041341 z" />
      <text
         y="49.346539"
         x="34.067593"
         id="text589"
         style="font-variant:normal;font-weight:normal;font-stretch:normal;font-size:2.11807775px;font-family:'HJIDF P +Helvetica LT Std';-inkscape-font-specification:HelveticaLTStd-Roman;writing-mode:lr-tb;fill:#000000;fill-opacity:1;fill-rule:nonzero;stroke:none;stroke-width:0.35277778">
        <tspan
           style="stroke-width:0.35277778"
           id="tspan587"
           sodipodi:role="line"
           y="49.346539"
           x="34.067593">Filters</tspan>
      </text>
      <text
         y="49.413357"
         x="48.365623"
         id="text593"
         style="font-variant:normal;font-weight:normal;font-stretch:normal;font-size:2.11807775px;font-family:'HJIDF P +Helvetica LT Std';-inkscape-font-specification:HelveticaLTStd-Roman;writing-mode:lr-tb;fill:#000000;fill-opacity:1;fill-rule:nonzero;stroke:none;stroke-width:0.35277778">
        <tspan
           style="stroke-width:0.35277778"
           id="tspan591"
           sodipodi:role="line"
           y="49.413357"
           x="48.365623 49.894875 51.072525 52.250175 52.72039 53.190601 54.368256 55.545906 56.723557 57.428875 57.89909 58.487915">Nonlinearity</tspan>
      </text>
      <text
         y="49.481712"
         x="62.541271"
         id="text601"
         style="font-variant:normal;font-weight:normal;font-stretch:normal;font-size:2.11807775px;font-family:'HJIDF P +Helvetica LT Std';-inkscape-font-specification:HelveticaLTStd-Roman;writing-mode:lr-tb;fill:#000000;fill-opacity:1;fill-rule:nonzero;stroke:none;stroke-width:0.35277778">
        <tspan
           style="stroke-width:0.35277778"
           id="tspan599"
           sodipodi:role="line"
           y="49.481712"
           x="62.541271">Licking</tspan>
      </text>
      <path
         inkscape:connector-curvature="0"
         id="path603"
         style="fill:none;stroke:#000000;stroke-width:0.36935833;stroke-linecap:butt;stroke-linejoin:miter;stroke-miterlimit:4;stroke-dasharray:none;stroke-opacity:1"
         d="m 78.727706,52.354276 v 2.309284 m 4.024489,-2.309284 v 2.309284 m 1.213908,-2.309284 v 2.309284 m -4.53778,-2.309284 v 2.309284 m 0.603955,-2.309284 v 2.309284 m 1.470025,-2.309284 v 2.309284" />
      <path
         inkscape:connector-curvature="0"
         id="path605"
         style="fill:none;stroke:#000000;stroke-width:0.11676944;stroke-linecap:butt;stroke-linejoin:miter;stroke-miterlimit:11.5;stroke-dasharray:none;stroke-opacity:1"
         d="m 33.604607,53.521618 h 8.091664 m -8.091664,3.393369 h 8.091664" />
      <path
         inkscape:connector-curvature="0"
         id="path607"
         style="fill:none;stroke:#cc2729;stroke-width:0.36935833;stroke-linecap:butt;stroke-linejoin:miter;stroke-miterlimit:14.30000019;stroke-dasharray:none;stroke-opacity:1"
         d="m 36.606393,51.092037 c -0.539044,-0.682625 0.04974,0.05856 0,0 -0.04974,-0.05856 -0.6731,-1.232958 -0.928158,0.975784 -0.150283,1.300339 -1.059392,1.452739 -1.059392,1.452739 l -0.379589,0.0025 m 7.166328,-0.0011 c -3.189111,0 -4.481336,-1.998839 -4.799189,-2.429934 m 4.799189,5.862109 c -1.634772,-0.03916 -1.194858,-1.724378 -2.542469,-1.724378 -1.402998,0 -0.891117,3.066697 -1.898298,3.0607 -1.078794,-0.0067 -0.916869,-1.375481 -2.725913,-1.375481" />
      <text
         y="59.308338"
         x="76.480812"
         id="text611"
         style="font-variant:normal;font-weight:normal;font-stretch:normal;font-size:2.11807775px;font-family:'HJIDF P +Helvetica LT Std';-inkscape-font-specification:HelveticaLTStd-Roman;writing-mode:lr-tb;fill:#cc2729;fill-opacity:1;fill-rule:nonzero;stroke:none;stroke-width:0.35277778">
        <tspan
           style="stroke-width:0.35277778"
           id="tspan609"
           sodipodi:role="line"
           y="59.308338"
           x="76.480812">Maximize</tspan>
      </text>
      <path
         inkscape:connector-curvature="0"
         id="path627"
         style="fill:none;stroke:#000000;stroke-width:0.16263054;stroke-linecap:butt;stroke-linejoin:miter;stroke-miterlimit:4;stroke-dasharray:none;stroke-opacity:1"
         d="M 27.624671,60.20464 H 11.330924 V 48.789457 h 16.293747 z" />
      <text
         y="50.662907"
         x="87.263474"
         id="text675"
         style="font-style:italic;font-variant:normal;font-weight:normal;font-stretch:normal;font-size:2.11807775px;font-family:'Helvetica LT Std';-inkscape-font-specification:HelveticaLTStd-Obl;writing-mode:lr-tb;fill:#000000;fill-opacity:1;fill-rule:nonzero;stroke:none;stroke-width:0.35277778">
        <tspan
           style="stroke-width:0.35277778"
           id="tspan673"
           y="50.662907"
           x="87.263474">r</tspan>
      </text>
      <text
         y="61.577499"
         x="77.866478"
         id="text1121"
         style="font-style:italic;font-variant:normal;font-weight:normal;font-stretch:normal;font-size:2.11807775px;font-family:'Helvetica LT Std';-inkscape-font-specification:HelveticaLTStd-Obl;writing-mode:lr-tb;fill:#000000;fill-opacity:1;fill-rule:nonzero;stroke:none;stroke-width:0.35277778">
        <tspan
           style="stroke-width:0.35277778"
           id="tspan1119"
           y="61.577499"
           x="77.866478">p</tspan>
      </text>
      <text
         y="61.577499"
         x="79.160469"
         id="text1125"
         style="font-variant:normal;font-weight:normal;font-stretch:normal;font-size:2.11807775px;font-family:'HJIDF P +Helvetica LT Std';-inkscape-font-specification:HelveticaLTStd-Roman;writing-mode:lr-tb;fill:#000000;fill-opacity:1;fill-rule:nonzero;stroke:none;stroke-width:0.35277778">
        <tspan
           style="stroke-width:0.35277778"
           id="tspan1123"
           y="61.577499"
           x="79.160469">(</tspan>
      </text>
      <text
         y="61.577499"
         x="79.865669"
         id="text1129"
         style="font-style:italic;font-variant:normal;font-weight:normal;font-stretch:normal;font-size:2.11807775px;font-family:'Helvetica LT Std';-inkscape-font-specification:HelveticaLTStd-BoldObl;writing-mode:lr-tb;fill:#000000;fill-opacity:1;fill-rule:nonzero;stroke:none;stroke-width:0.35277778">
        <tspan
           style="stroke-width:0.35277778"
           id="tspan1127"
           y="61.577499"
           x="79.865669">r</tspan>
      </text>
      <text
         y="61.577499"
         x="81.27858"
         id="text1133"
         style="font-variant:normal;font-weight:normal;font-stretch:normal;font-size:2.11807775px;font-family:'HJIDF P +Helvetica LT Std';-inkscape-font-specification:HelveticaLTStd-Roman;writing-mode:lr-tb;fill:#000000;fill-opacity:1;fill-rule:nonzero;stroke:none;stroke-width:0.35277778">
        <tspan
           style="stroke-width:0.35277778"
           id="tspan1131"
           sodipodi:role="line"
           y="61.577499"
           x="81.27858 81.829285">|</tspan>
      </text>
      <text
         y="61.577499"
         x="82.417984"
         id="text1137"
         style="font-style:italic;font-variant:normal;font-weight:normal;font-stretch:normal;font-size:2.11807775px;font-family:'Helvetica LT Std';-inkscape-font-specification:HelveticaLTStd-BoldObl;writing-mode:lr-tb;fill:#000000;fill-opacity:1;fill-rule:nonzero;stroke:none;stroke-width:0.35277778">
        <tspan
           style="stroke-width:0.35277778"
           id="tspan1135"
           y="61.577499"
           x="82.417984">x</tspan>
      </text>
      <text
         y="61.577499"
         x="83.477058"
         id="text1141"
         style="font-variant:normal;font-weight:normal;font-stretch:normal;font-size:2.11807775px;font-family:'HJIDF P +Helvetica LT Std';-inkscape-font-specification:HelveticaLTStd-Roman;writing-mode:lr-tb;fill:#000000;fill-opacity:1;fill-rule:nonzero;stroke:none;stroke-width:0.35277778">
        <tspan
           style="stroke-width:0.35277778"
           id="tspan1139"
           y="61.577499"
           x="83.477058">)</tspan>
      </text>
      <text
         y="59.308178"
         x="50.545029"
         id="text601-3"
         style="font-variant:normal;font-weight:normal;font-stretch:normal;font-size:2.11807775px;font-family:'HJIDF P +Helvetica LT Std';-inkscape-font-specification:HelveticaLTStd-Roman;writing-mode:lr-tb;fill:#000000;fill-opacity:1;fill-rule:nonzero;stroke:none;stroke-width:0.35277778">
        <tspan
           style="stroke-width:0.35277778"
           id="tspan599-6"
           sodipodi:role="line"
           y="59.308178"
           x="50.545029">Post-Lick Filter</tspan>
      </text>
      <text
         y="51.84016"
         x="12.369273"
         id="text601-7"
         style="font-variant:normal;font-weight:normal;font-stretch:normal;font-size:1.72525728px;font-family:'HJIDF P +Helvetica LT Std';-inkscape-font-specification:HelveticaLTStd-Roman;writing-mode:lr-tb;fill:#000000;fill-opacity:1;fill-rule:nonzero;stroke:none;stroke-width:0.28735131">
        <tspan
           style="stroke-width:0.28735131"
           id="tspan599-5"
           sodipodi:role="line"
           y="51.84016"
           x="12.369273">Flash</tspan>
      </text>
      <text
         y="55.938133"
         x="12.40921"
         id="text601-7-3"
         style="font-variant:normal;font-weight:normal;font-stretch:normal;font-size:1.72525728px;font-family:'HJIDF P +Helvetica LT Std';-inkscape-font-specification:HelveticaLTStd-Roman;writing-mode:lr-tb;fill:#000000;fill-opacity:1;fill-rule:nonzero;stroke:none;stroke-width:0.28735131">
        <tspan
           style="stroke-width:0.28735131"
           id="tspan599-5-5"
           sodipodi:role="line"
           y="55.938133"
           x="12.40921">Reward</tspan>
      </text>
      <text
         y="53.777668"
         x="12.444261"
         id="text601-7-6"
         style="font-variant:normal;font-weight:normal;font-stretch:normal;font-size:1.72525728px;font-family:'HJIDF P +Helvetica LT Std';-inkscape-font-specification:HelveticaLTStd-Roman;writing-mode:lr-tb;fill:#000000;fill-opacity:1;fill-rule:nonzero;stroke:none;stroke-width:0.28735131">
        <tspan
           style="stroke-width:0.28735131"
           id="tspan599-5-2"
           sodipodi:role="line"
           y="53.777668"
           x="12.444261">Change Flash</tspan>
      </text>
      <text
         y="58.023167"
         x="12.395783"
         id="text601-7-3-9"
         style="font-variant:normal;font-weight:normal;font-stretch:normal;font-size:1.72525728px;font-family:'HJIDF P +Helvetica LT Std';-inkscape-font-specification:HelveticaLTStd-Roman;writing-mode:lr-tb;fill:#000000;fill-opacity:1;fill-rule:nonzero;stroke:none;stroke-width:0.28735131">
        <tspan
           style="stroke-width:0.28735131"
           id="tspan599-5-5-1"
           sodipodi:role="line"
           y="58.023167"
           x="12.395783">Running Speed</tspan>
      </text>
      <g
         transform="translate(4.7625002)"
         id="g11258">
        <text
           style="font-style:italic;font-variant:normal;font-weight:normal;font-stretch:normal;font-size:2.11807775px;font-family:'Helvetica LT Std';-inkscape-font-specification:HelveticaLTStd-Obl;writing-mode:lr-tb;fill:#000000;fill-opacity:1;fill-rule:nonzero;stroke:none;stroke-width:0.35277778"
           id="text635"
           x="18.960661"
           y="47.238892">
          <tspan
             x="18.960661"
             y="47.238892"
             id="tspan633"
             style="stroke-width:0.35277778">x</tspan>
        </text>
        <text
           style="font-variant:normal;font-weight:normal;font-stretch:normal;font-size:1.72525728px;font-family:'HJIDF P +Helvetica LT Std';-inkscape-font-specification:HelveticaLTStd-Roman;writing-mode:lr-tb;fill:#000000;fill-opacity:1;fill-rule:nonzero;stroke:none;stroke-width:0.28735131"
           id="text601-7-2"
           x="7.3651476"
           y="47.233955">
          <tspan
             x="7.3651476"
             y="47.233955"
             sodipodi:role="line"
             id="tspan599-5-7"
             style="stroke-width:0.28735131">Task Events</tspan>
        </text>
      </g>
      <text
         y="50.541248"
         x="75.854439"
         id="text601-7-0"
         style="font-variant:normal;font-weight:normal;font-stretch:normal;font-size:1.72525728px;font-family:'HJIDF P +Helvetica LT Std';-inkscape-font-specification:HelveticaLTStd-Roman;writing-mode:lr-tb;fill:#000000;fill-opacity:1;fill-rule:nonzero;stroke:none;stroke-width:0.28735131">
        <tspan
           style="stroke-width:0.28735131"
           id="tspan599-5-9"
           sodipodi:role="line"
           y="50.541248"
           x="75.854439">Lick Pattern</tspan>
      </text>
    </g>
  </g>
</svg>
